<svg width="13" height="16" viewBox="0 0 13 16" fill="none" xmlns="http://www.w3.org/2000/svg">
<style>
    path {
      fill: #0A2437;
    }
    @media (prefers-color-scheme: dark) {
      path {
        fill: #F8F9FB;
      }
    }
</style>
<path d="M6.43322 16C5.29052 16 4.22945 15.8047 3.25 15.4141C2.28539 15.0085 1.50628 14.415 0.912671 13.6338C0.333904 12.8526 0.0296803 11.9136 0 10.8169C0 10.6817 0.0445206 10.569 0.133562 10.4789C0.222603 10.3737 0.341324 10.3211 0.489726 10.3211H3.49486C3.68779 10.3211 3.83619 10.3737 3.94007 10.4789C4.05879 10.584 4.16267 10.7418 4.25171 10.9521C4.48916 12.154 5.25342 12.7549 6.54452 12.7549C7.28653 12.7549 7.85788 12.507 8.25856 12.0113C8.65925 11.5155 8.85959 10.8019 8.85959 9.87042V3.35775H1.64726C1.49886 3.35775 1.3653 3.30516 1.24658 3.2C1.14269 3.07981 1.09075 2.9446 1.09075 2.79437V0.563381C1.09075 0.398122 1.14269 0.262911 1.24658 0.157747C1.3653 0.0525823 1.49886 0 1.64726 0H12.4212C12.5845 0 12.718 0.0525823 12.8219 0.157747C12.9406 0.262911 13 0.398122 13 0.563381V9.9831C13 11.2601 12.7255 12.3493 12.1764 13.2507C11.6273 14.1521 10.8556 14.8357 9.8613 15.3014C8.86701 15.7671 7.72431 16 6.43322 16Z" fill="white"/>
</svg>
